HIERARCHY
ROOT pelvis
{
	OFFSET 0.003123 -0.351407 0.012037
	CHANNELS 6 Xposition Yposition Zposition Zrotation Yrotation Xrotation 
	JOINT left_hip
	{
		OFFSET 0.058189 -0.092763 -0.026001
		CHANNELS 3 Zrotation Yrotation Xrotation
		JOINT left_knee
		{
			OFFSET 0.054695 -0.378753 -0.009396
			CHANNELS 3 Zrotation Yrotation Xrotation
			JOINT left_ankle
			{
				OFFSET -0.043453 -0.403059 -0.031876
				CHANNELS 3 Zrotation Yrotation Xrotation
				JOINT left_foot
				{
					OFFSET 0.047257 -0.057997 0.118216
					CHANNELS 3 Zrotation Yrotation Xrotation
					End Site
					{
						OFFSET 0.000000 0.000000 0.000000
					}
				}
			}
		}
	}
	JOINT right_hip
	{
		OFFSET -0.063267 -0.103908 -0.021250
		CHANNELS 3 Zrotation Yrotation Xrotation
		JOINT right_knee
		{
			OFFSET -0.044210 -0.362380 -0.016824
			CHANNELS 3 Zrotation Yrotation Xrotation
			JOINT right_ankle
			{
				OFFSET 0.015417 -0.410728 -0.020192
				CHANNELS 3 Zrotation Yrotation Xrotation
				JOINT right_foot
				{
					OFFSET -0.038812 -0.058328 0.119049
					CHANNELS 3 Zrotation Yrotation Xrotation
					End Site
					{
						OFFSET 0.000000 0.000000 0.000000
					}
				}
			}
		}
	}
	JOINT spine_1
	{
		OFFSET -0.002763 0.109891 -0.027618
		CHANNELS 3 Zrotation Yrotation Xrotation
		JOINT spine_2
		{
			OFFSET 0.009448 0.131853 -0.005940
			CHANNELS 3 Zrotation Yrotation Xrotation
			JOINT spine_3
			{
				OFFSET -0.011330 0.052235 0.028447
				CHANNELS 3 Zrotation Yrotation Xrotation
				JOINT neck
				{
					OFFSET -0.012164 0.165167 -0.031615
					CHANNELS 3 Zrotation Yrotation Xrotation
					JOINT head
					{
						OFFSET 0.024783 0.160452 0.020737
						CHANNELS 3 Zrotation Yrotation Xrotation
						End Site
						{
							OFFSET 0.000000 0.000000 0.000000
						}
					}
				}
				JOINT left_collar
				{
					OFFSET 0.046364 0.084944 -0.007220
					CHANNELS 3 Zrotation Yrotation Xrotation
					JOINT left_shoulder
					{
						OFFSET 0.119239 0.057728 -0.015461
						CHANNELS 3 Zrotation Yrotation Xrotation
						JOINT left_elbow
						{
							OFFSET 0.254123 -0.072151 -0.042459
							CHANNELS 3 Zrotation Yrotation Xrotation
							JOINT left_wrist
							{
								OFFSET 0.251987 0.023221 -0.002472
								CHANNELS 3 Zrotation Yrotation Xrotation
								JOINT left_index_1
								{
									OFFSET 0.101902 -0.008688 0.019351
									CHANNELS 3 Zrotation Yrotation Xrotation
									JOINT left_index_2
									{
										OFFSET 0.030149 -0.011154 0.001151
										CHANNELS 3 Zrotation Yrotation Xrotation
										JOINT left_index_3
										{
											OFFSET 0.006504 -0.021577 -0.002433
											CHANNELS 3 Zrotation Yrotation Xrotation
											End Site
											{
												OFFSET 0.000000 0.000000 0.000000
											}
										}
									}
								}
								JOINT left_middle_1
								{
									OFFSET 0.109398 -0.006328 -0.003981
									CHANNELS 3 Zrotation Yrotation Xrotation
									JOINT left_middle_2
									{
										OFFSET 0.026472 -0.015218 -0.004641
										CHANNELS 3 Zrotation Yrotation Xrotation
										JOINT left_middle_3
										{
											OFFSET 0.005022 -0.023347 -0.001911
											CHANNELS 3 Zrotation Yrotation Xrotation
											End Site
											{
												OFFSET 0.000000 0.000000 0.000000
											}
										}
									}
								}
								JOINT left_pinky_1
								{
									OFFSET 0.084047 -0.014539 -0.043750
									CHANNELS 3 Zrotation Yrotation Xrotation
									JOINT left_pinky_2
									{
										OFFSET 0.012124 -0.014448 -0.005375
										CHANNELS 3 Zrotation Yrotation Xrotation
										JOINT left_pinky_3
										{
											OFFSET 0.003798 -0.018853 0.000167
											CHANNELS 3 Zrotation Yrotation Xrotation
											End Site
											{
												OFFSET 0.000000 0.000000 0.000000
											}
										}
									}
								}
								JOINT left_ring_1
								{
									OFFSET 0.097444 -0.009268 -0.027345
									CHANNELS 3 Zrotation Yrotation Xrotation
									JOINT left_ring_2
									{
										OFFSET 0.023561 -0.016057 -0.001895
										CHANNELS 3 Zrotation Yrotation Xrotation
										JOINT left_ring_3
										{
											OFFSET 0.004257 -0.023548 0.000814
											CHANNELS 3 Zrotation Yrotation Xrotation
											End Site
											{
												OFFSET 0.000000 0.000000 0.000000
											}
										}
									}
								}
								JOINT left_thumb_1
								{
									OFFSET 0.040636 -0.017977 0.025611
									CHANNELS 3 Zrotation Yrotation Xrotation
									JOINT left_thumb_2
									{
										OFFSET 0.021637 -0.017639 0.011623
										CHANNELS 3 Zrotation Yrotation Xrotation
										JOINT left_thumb_3
										{
											OFFSET 0.024002 -0.008356 0.006548
											CHANNELS 3 Zrotation Yrotation Xrotation
											End Site
											{
												OFFSET 0.000000 0.000000 0.000000
											}
										}
									}
								}
							}
						}
					}
				}
				JOINT right_collar
				{
					OFFSET -0.047695 0.084339 -0.013400
					CHANNELS 3 Zrotation Yrotation Xrotation
					JOINT right_shoulder
					{
						OFFSET -0.102578 0.053524 -0.012669
						CHANNELS 3 Zrotation Yrotation Xrotation
						JOINT right_elbow
						{
							OFFSET -0.271150 -0.036492 -0.026467
							CHANNELS 3 Zrotation Yrotation Xrotation
							JOINT right_wrist
							{
								OFFSET -0.249267 -0.004533 -0.015325
								CHANNELS 3 Zrotation Yrotation Xrotation
								JOINT right_index_1
								{
									OFFSET -0.099881 -0.011783 0.019600
									CHANNELS 3 Zrotation Yrotation Xrotation
									JOINT right_index_2
									{
										OFFSET -0.030148 -0.011154 0.001151
										CHANNELS 3 Zrotation Yrotation Xrotation
										JOINT right_index_3
										{
											OFFSET -0.006505 -0.021577 -0.002432
											CHANNELS 3 Zrotation Yrotation Xrotation
											End Site
											{
												OFFSET 0.000000 0.000000 0.000000
											}
										}
									}
								}
								JOINT right_middle_1
								{
									OFFSET -0.107376 -0.009422 -0.003734
									CHANNELS 3 Zrotation Yrotation Xrotation
									JOINT right_middle_2
									{
										OFFSET -0.026472 -0.015218 -0.004641
										CHANNELS 3 Zrotation Yrotation Xrotation
										JOINT right_middle_3
										{
											OFFSET -0.005022 -0.023347 -0.001911
											CHANNELS 3 Zrotation Yrotation Xrotation
											End Site
											{
												OFFSET 0.000000 0.000000 0.000000
											}
										}
									}
								}
								JOINT right_pinky_1
								{
									OFFSET -0.082027 -0.017634 -0.043503
									CHANNELS 3 Zrotation Yrotation Xrotation
									JOINT right_pinky_2
									{
										OFFSET -0.012123 -0.014448 -0.005374
										CHANNELS 3 Zrotation Yrotation Xrotation
										JOINT right_pinky_3
										{
											OFFSET -0.003798 -0.018852 0.000167
											CHANNELS 3 Zrotation Yrotation Xrotation
											End Site
											{
												OFFSET 0.000000 0.000000 0.000000
											}
										}
									}
								}
								JOINT right_ring_1
								{
									OFFSET -0.095423 -0.012362 -0.027099
									CHANNELS 3 Zrotation Yrotation Xrotation
									JOINT right_ring_2
									{
										OFFSET -0.023561 -0.016057 -0.001895
										CHANNELS 3 Zrotation Yrotation Xrotation
										JOINT right_ring_3
										{
											OFFSET -0.004257 -0.023548 0.000816
											CHANNELS 3 Zrotation Yrotation Xrotation
											End Site
											{
												OFFSET 0.000000 0.000000 0.000000
											}
										}
									}
								}
								JOINT right_thumb_1
								{
									OFFSET -0.038613 -0.021074 0.025861
									CHANNELS 3 Zrotation Yrotation Xrotation
									JOINT right_thumb_2
									{
										OFFSET -0.021636 -0.017639 0.011623
										CHANNELS 3 Zrotation Yrotation Xrotation
										JOINT right_thumb_3
										{
											OFFSET -0.024004 -0.008353 0.006547
											CHANNELS 3 Zrotation Yrotation Xrotation
											End Site
											{
												OFFSET 0.000000 0.000000 0.000000
											}
										}
									}
								}
							}
						}
					}
				}
			}
		}
	}
}
MOTION
Frames: 4
Frame Time: 0.050000
0.176224 0.996544 0.975983 -0.632397 0.325031 -23.870215 1.165568 2.730532 20.557208 2.013240 -3.753759 26.680514 -12.753951 -12.902428 12.210714 0.000000 0.000000 0.000000 1.287334 -1.384842 10.189172 -4.394188 1.256607 13.252404 13.280331 12.794665 15.145906 0.000000 0.000000 0.000000 -6.407040 -1.096949 34.678946 5.702519 -4.869292 -9.070658 -4.027096 12.296328 -1.508911 6.329510 -7.438934 24.056750 0.000000 0.000000 0.000000 -10.461485 -14.378885 5.650059 -38.023181 -46.411743 -5.475817 0.158007 -59.372945 4.012107 16.297908 -8.287867 -23.020821 -6.690190 10.280345 2.019826 -24.080534 -0.610731 -2.398966 0.000000 0.000000 0.000000 -12.950011 2.664566 -0.212477 -15.404285 -3.158315 -10.755957 0.000000 0.000000 0.000000 3.859931 -11.106634 -14.426846 -16.407935 4.186766 8.450673 0.000000 0.000000 0.000000 -13.932316 -6.260323 -2.734829 -15.573654 3.508980 11.655763 0.000000 0.000000 0.000000 3.287615 8.024695 2.895281 2.593932 6.861077 3.981166 0.000000 0.000000 0.000000 19.250719 3.669278 2.734805 39.621388 36.885499 5.372148 -30.043252 63.832974 -17.684935 -14.904087 -2.233716 -50.944593 -1.833542 -3.828617 1.056996 18.693142 24.514979 -24.264703 0.000000 0.000000 0.000000 26.521131 20.732047 -3.869653 -15.167375 0.529781 -31.515765 0.000000 0.000000 0.000000 17.733842 38.743841 -33.519618 -21.882041 0.470479 2.878643 0.000000 0.000000 0.000000 29.984166 33.094538 -4.942334 -23.561053 1.502808 -22.259447 0.000000 0.000000 0.000000 -33.340079 -20.657146 0.812530 21.708808 10.000029 2.867251 0.000000 0.000000 0.000000 
0.177166 0.995899 0.975983 -0.479114 0.220375 -25.111996 0.428907 3.001125 21.451169 2.936131 -4.046751 26.643045 -12.834704 -13.046649 12.240667 0.000000 0.000000 0.000000 1.171948 -1.562729 11.666526 -4.306770 1.182401 12.452999 13.496120 12.875742 15.456429 0.000000 0.000000 0.000000 -6.179374 -1.174463 36.801921 3.523640 -4.098042 -10.665728 -1.215631 10.298146 0.693448 5.425891 -6.395911 22.433306 0.000000 0.000000 0.000000 -11.275404 -13.133979 5.153133 -37.553317 -47.960554 -5.376871 3.659922 -59.962386 2.401327 15.864278 -8.282969 -23.651773 -11.030795 7.759099 1.351990 -21.370974 3.144182 10.740431 0.000000 0.000000 0.000000 -22.608715 4.799301 -0.367412 -22.515185 -1.999382 -5.752406 0.000000 0.000000 0.000000 -1.744649 -7.993947 -10.286407 -24.896667 5.663899 8.769379 0.000000 0.000000 0.000000 -18.051520 -2.363234 -0.240087 -31.158101 -3.001828 0.269248 0.000000 0.000000 0.000000 7.584029 16.203461 6.081002 -2.103221 -0.556091 0.427470 0.000000 0.000000 0.000000 17.330612 3.541123 2.089455 39.699212 39.604668 5.906445 -28.188290 63.053888 -16.684699 -15.241120 -1.120528 -52.287129 3.586688 -1.152388 0.445764 31.542858 26.909532 -23.249793 0.000000 0.000000 0.000000 30.060256 20.833970 -2.797423 -9.841946 0.221347 -29.770172 0.000000 0.000000 0.000000 17.471235 35.214287 -31.006815 -19.336054 0.670762 1.603823 0.000000 0.000000 0.000000 34.307743 33.146925 -2.893116 -21.498122 2.738406 -24.259716 0.000000 0.000000 0.000000 -28.180093 -17.038088 -1.988928 18.609332 5.979950 2.789109 0.000000 0.000000 0.000000 
0.179050 0.994610 0.975983 -0.612522 -0.885929 -25.375622 0.870966 2.890100 20.768952 2.091657 -4.059541 29.235686 -12.889488 -13.170831 12.374945 0.000000 0.000000 0.000000 1.379486 -1.747024 13.040651 -4.268183 1.071734 11.012553 13.098359 12.445089 14.995996 0.000000 0.000000 0.000000 -6.655584 -0.973086 32.928610 5.135024 -3.858831 -4.078246 -2.965203 9.227356 -1.326389 4.400267 -5.978998 22.862937 0.000000 0.000000 0.000000 -10.275417 -11.423754 4.348145 -37.664546 -48.006523 -5.040448 6.349320 -61.837578 0.956646 17.251744 -6.071319 -21.487223 -10.094349 7.922346 1.164573 -43.481293 0.273819 -0.576962 0.000000 0.000000 0.000000 -23.675812 0.067862 -1.910206 -25.779863 -3.338823 -9.319471 0.000000 0.000000 0.000000 -8.896440 -9.612258 -12.187287 -27.252176 8.698885 13.617360 0.000000 0.000000 0.000000 -23.029880 -4.197016 -0.708257 -33.553816 -1.026114 3.521212 0.000000 0.000000 0.000000 0.382395 13.476827 8.088260 3.882483 -9.253826 -5.438999 0.000000 0.000000 0.000000 16.806354 4.201029 2.309949 39.098641 41.491651 6.324569 -28.524650 63.141129 -17.109897 -16.256649 -0.571739 -52.264804 -0.343966 -2.188089 0.693338 24.272309 20.010151 -15.939673 0.000000 0.000000 0.000000 31.228886 21.920103 -2.457556 -12.179950 -1.330985 -21.471920 0.000000 0.000000 0.000000 17.330737 30.871112 -27.385038 -18.331068 0.107819 3.919694 0.000000 0.000000 0.000000 31.118431 27.681133 -2.986671 -20.514487 2.365067 -20.741858 0.000000 0.000000 0.000000 -32.408562 -21.098622 0.837931 21.781903 11.979252 1.990025 0.000000 0.000000 0.000000 
0.178108 0.995255 0.975983 -0.576616 0.196717 -25.157623 0.855187 2.752668 20.249778 2.475509 -4.515608 30.719361 -12.982832 -13.700703 11.871329 0.000000 0.000000 0.000000 0.772528 -1.608955 12.371756 -4.092636 1.109880 11.943341 12.594281 12.713673 13.875131 0.000000 0.000000 0.000000 -7.869335 -0.787839 31.214416 5.966777 -3.953048 -2.060542 -3.592297 8.369993 -3.945386 4.363059 -6.256435 24.104360 0.000000 0.000000 0.000000 -9.763845 -11.017884 4.147792 -37.228873 -46.391403 -4.957867 3.122386 -63.748646 2.843143 16.978626 -6.890242 -21.266660 -11.405710 4.349614 1.115532 -20.626774 3.522649 10.228251 0.000000 0.000000 0.000000 -22.242775 -2.732977 -2.666487 -9.662532 2.354747 7.649818 0.000000 0.000000 0.000000 -5.014459 -5.382119 -7.030762 -16.459534 3.340312 6.435878 0.000000 0.000000 0.000000 -21.925044 -6.252725 -1.889893 -16.549013 3.634833 11.788519 0.000000 0.000000 0.000000 0.896744 13.348278 7.987753 1.607759 -2.354356 -1.268924 0.000000 0.000000 0.000000 17.172682 4.836235 2.673567 38.619797 39.257267 5.705842 -29.150891 64.084384 -17.961169 -15.200706 -1.274419 -46.357920 0.386900 -2.131332 0.524587 4.559905 11.298086 -25.684286 0.000000 0.000000 0.000000 22.789929 22.399813 -5.413419 -15.323624 -0.409537 -19.519089 0.000000 0.000000 0.000000 7.904082 30.550048 -32.341278 -19.069434 -0.388392 6.210551 0.000000 0.000000 0.000000 22.451370 28.468299 -7.708997 -22.769559 0.353179 -16.583295 0.000000 0.000000 0.000000 -33.018373 -21.815030 1.949976 20.308174 10.259957 2.284373 0.000000 0.000000 0.000000 
